HIERARCHY
ROOT Hips
{
	OFFSET 0.000000 0.000000 0.000000
	CHANNELS 6 Xposition Yposition Zposition Xrotation Yrotation Zrotation
	JOINT LeftUpLeg_virtual
	{
		OFFSET 0.000000 0.000000 0.000000
		CHANNELS 3 Xrotation Yrotation Zrotation
		JOINT LeftUpLeg
		{
			OFFSET 13.026900 -6.336304 -1.092800
			CHANNELS 3 Xrotation Yrotation Zrotation
			JOINT LeftLeg
			{
				OFFSET 0.524474 -46.096886 9.782700
				CHANNELS 3 Xrotation Yrotation Zrotation
				JOINT LeftFoot
				{
					OFFSET -0.524474 -53.427422 -12.948200
					CHANNELS 3 Xrotation Yrotation Zrotation
					JOINT LeftToeBase
					{
						OFFSET 0.192200 -14.009700 16.364100
						CHANNELS 3 Xrotation Yrotation Zrotation
						JOINT LeftToe_End
						{
							OFFSET -1.784700 -0.561700 9.474800
							CHANNELS 3 Xrotation Yrotation Zrotation
							End Site
							{
								OFFSET 0 0 0
							}
						}
					}
				}
			}
		}
	}
	JOINT RightUpLeg_virtual
	{
		OFFSET 0.000000 0.000000 0.000000
		CHANNELS 3 Xrotation Yrotation Zrotation
		JOINT RightUpLeg
		{
			OFFSET -12.883000 -6.336304 -1.092800
			CHANNELS 3 Xrotation Yrotation Zrotation
			JOINT RightLeg
			{
				OFFSET -0.524587 -46.096825 9.782800
				CHANNELS 3 Xrotation Yrotation Zrotation
				JOINT RightFoot
				{
					OFFSET 0.524587 -53.427383 -12.948300
					CHANNELS 3 Xrotation Yrotation Zrotation
					JOINT RightToeBase
					{
						OFFSET -0.192200 -14.009700 16.364100
						CHANNELS 3 Xrotation Yrotation Zrotation
						JOINT RightToe_End
						{
							OFFSET 1.784700 -0.561700 9.474800
							CHANNELS 3 Xrotation Yrotation Zrotation
							End Site
							{
								OFFSET 0 0 0
							}
						}
					}
				}
			}
		}
	}
	JOINT Spine_virtual
	{
		OFFSET 0.000000 0.000000 0.000000
		CHANNELS 3 Xrotation Yrotation Zrotation
		JOINT Spine
		{
			OFFSET 0.072000 7.257294 -0.789700
			CHANNELS 3 Xrotation Yrotation Zrotation
			JOINT Spine1
			{
				OFFSET 0.000000 12.508769 -0.658067
				CHANNELS 3 Xrotation Yrotation Zrotation
				JOINT Spine1_split
				{
					OFFSET 0.000000 12.508769 -0.658067
					CHANNELS 3 Xrotation Yrotation Zrotation
					JOINT Spine2
					{
						OFFSET 0.000000 12.508769 -0.658067
						CHANNELS 3 Xrotation Yrotation Zrotation
						JOINT Neck_virtual
						{
							OFFSET 0.000000 0.000000 0.000000
							CHANNELS 3 Xrotation Yrotation Zrotation
							JOINT Neck
							{
								OFFSET 0.000000 14.033295 7.520400
								CHANNELS 3 Xrotation Yrotation Zrotation
								JOINT Head
								{
									OFFSET 0.000000 8.198502 5.703100
									CHANNELS 3 Xrotation Yrotation Zrotation
									JOINT HeadTop_End
									{
										OFFSET 0.000000 17.760803 13.332701
										CHANNELS 3 Xrotation Yrotation Zrotation
										End Site
										{
											OFFSET 0 0 0
										}
									}
								}
							}
						}
						JOINT LeftShoulder_virtual
						{
							OFFSET 0.000000 0.000000 0.000000
							CHANNELS 3 Xrotation Yrotation Zrotation
							JOINT LeftShoulder
							{
								OFFSET 6.292450 5.785301 -0.669000
								CHANNELS 3 Xrotation Yrotation Zrotation
								JOINT LeftShoulder_split
								{
									OFFSET 6.292450 5.785301 -0.669000
									CHANNELS 3 Xrotation Yrotation Zrotation
									JOINT LeftArm
									{
										OFFSET 13.907140 -6.093903 1.965100
										CHANNELS 3 Xrotation Yrotation Zrotation
										JOINT LeftForeArm
										{
											OFFSET 34.140198 0.000000 0.000000
											CHANNELS 3 Xrotation Yrotation Zrotation
											JOINT LeftHand
											{
												OFFSET 40.960209 0.000000 0.000000
												CHANNELS 3 Xrotation Yrotation Zrotation
												End Site
												{
													OFFSET 0 0 0
												}
											}
										}
									}
								}
							}
						}
						JOINT RightShoulder_virtual
						{
							OFFSET 0.000000 0.000000 0.000000
							CHANNELS 3 Xrotation Yrotation Zrotation
							JOINT RightShoulder
							{
								OFFSET -6.292450 5.785301 -0.669000
								CHANNELS 3 Xrotation Yrotation Zrotation
								JOINT RightShoulder_split
								{
									OFFSET -6.292450 5.785301 -0.669000
									CHANNELS 3 Xrotation Yrotation Zrotation
									JOINT RightArm
									{
										OFFSET -13.907140 -6.093903 1.965100
										CHANNELS 3 Xrotation Yrotation Zrotation
										JOINT RightForeArm
										{
											OFFSET -34.140198 0.000000 0.000000
											CHANNELS 3 Xrotation Yrotation Zrotation
											JOINT RightHand
											{
												OFFSET -40.960209 0.000000 0.000000
												CHANNELS 3 Xrotation Yrotation Zrotation
												End Site
												{
													OFFSET 0 0 0
												}
											}
										}
									}
								}
							}
						}
					}
				}
			}
		}
	}
}
MOTION
Frames: 11
Frame Time: 0.03333333
-0.226587 87.964531 -98.086014 0.000000 0.000000 0.000000 37.593720 -70.096667 30.346100 -60.265758 -20.132461 24.811960 44.897931 -5.077232 10.029038 13.989516 0.416858 -15.785488 -8.985944 -0.000010 -0.000020 0.000000 0.000000 0.000000 37.593720 -70.096667 30.346100 -22.227862 8.980657 -25.446191 43.760838 -5.450608 -6.559561 -2.241610 -30.451036 35.798790 -2.393496 -0.000024 -0.000004 0.000000 0.000000 0.000000 37.593720 -70.096667 30.346100 0.928523 12.145325 -4.536918 -1.467007 7.682357 -3.047190 0.000000 0.000000 0.000000 0.000000 0.000000 0.000000 -1.482611 3.090858 1.162857 13.645827 4.837657 -4.250168 2.800514 15.085514 7.206377 0.000000 0.000000 0.000000 -1.482611 3.090858 1.162857 4.004424 5.439234 -12.961321 0.000000 0.000000 0.000000 -56.010512 -35.589237 -51.025461 0.000144 -82.017704 0.000092 0.000000 0.000000 0.000000 -1.482611 3.090858 1.162857 -14.388970 3.880197 -3.771192 0.000000 0.000000 0.000000 -98.939771 39.793468 121.270828 -0.000010 35.519832 0.000011 0.000000 0.000000 0.000000 
0.781616 89.969261 -107.151245 0.000000 0.000000 0.000000 36.249443 -69.387496 29.215933 -59.149206 -19.704894 24.303075 38.358356 -2.981817 9.728520 22.317390 0.810446 -9.339368 -4.706078 0.138739 -2.864980 0.000000 0.000000 0.000000 36.249443 -69.387496 29.215933 -27.558510 7.965792 -23.726966 49.181617 -6.622386 -2.289981 -6.526752 -28.768221 34.741890 -1.798246 -0.000001 -0.000003 0.000000 0.000000 0.000000 36.249443 -69.387496 29.215933 0.867636 10.180680 -4.046017 -1.602552 6.808471 -2.710776 0.000000 0.000000 0.000000 0.000000 0.000000 0.000000 -1.615873 2.233987 1.483569 13.856779 5.273892 -5.005349 3.706263 16.403029 6.692205 0.000000 0.000000 0.000000 -1.615873 2.233987 1.483569 4.053402 5.979539 -12.991231 0.000000 0.000000 0.000000 -54.011606 -35.171677 -50.958566 -0.000282 -82.344754 -0.000271 0.000000 0.000000 0.000000 -1.615873 2.233987 1.483569 -14.532554 3.553454 -4.417812 0.000000 0.000000 0.000000 -100.457746 41.260910 122.940236 -0.000009 34.452956 -0.000002 0.000000 0.000000 0.000000 
1.931229 91.723740 -115.499039 0.000000 0.000000 0.000000 33.827079 -67.426132 26.006695 -62.090285 -16.837786 21.658455 35.027700 -2.414535 9.668719 25.518985 -0.123368 -7.607962 -2.706022 0.137176 -2.898931 0.000000 0.000000 0.000000 33.827079 -67.426132 26.006695 -31.600949 3.983958 -23.863513 52.658238 -9.540150 3.418403 -10.426397 -22.890841 33.579290 -1.156845 0.000009 0.000001 0.000000 0.000000 0.000000 33.827079 -67.426132 26.006695 0.807935 8.049826 -2.465074 -1.619448 5.518449 -2.231737 0.000000 0.000000 0.000000 0.000000 0.000000 0.000000 -1.616521 0.925566 1.956717 13.288393 5.956510 -5.383662 2.808269 18.062152 6.550446 0.000000 0.000000 0.000000 -1.616521 0.925566 1.956717 3.900272 5.904413 -12.522482 0.000000 0.000000 0.000000 -52.948685 -33.982807 -50.979856 0.000365 -82.394088 0.000366 0.000000 0.000000 0.000000 -1.616521 0.925566 1.956717 -14.701919 3.010195 -5.023190 0.000000 0.000000 0.000000 -104.458871 42.452300 125.685344 0.000017 31.733172 0.000003 0.000000 0.000000 0.000000 
2.812147 93.251724 -122.852112 0.000000 0.000000 0.000000 33.025051 -65.962593 24.261822 -67.374051 -13.379943 17.681881 39.239990 -2.961907 8.532075 22.846511 -1.020998 -9.666620 -0.567874 0.006359 -0.641437 0.000000 0.000000 0.000000 33.025051 -65.962593 24.261822 -36.420256 -1.683890 -21.308052 55.303424 -9.447283 3.920129 -13.339279 -20.997412 27.747193 -1.187219 -0.000002 -0.000012 0.000000 0.000000 0.000000 33.025051 -65.962593 24.261822 0.859008 6.779167 -1.105124 -1.589165 4.608906 -2.015176 0.000000 0.000000 0.000000 0.000000 0.000000 0.000000 -1.578578 -0.026342 2.171800 12.586907 6.539992 -5.118965 0.875514 19.378951 7.161997 0.000000 0.000000 0.000000 -1.578578 -0.026342 2.171800 3.662903 5.270455 -11.900309 0.000000 0.000000 0.000000 -53.075426 -32.931115 -50.693538 -0.000194 -82.372109 -0.000194 0.000000 0.000000 0.000000 -1.578578 -0.026342 2.171800 -14.769628 2.520832 -5.024784 0.000000 0.000000 0.000000 -107.407115 42.298993 127.414242 0.000013 29.536672 -0.000015 0.000000 0.000000 0.000000 
3.556393 95.668381 -129.784805 0.000000 0.000000 0.000000 35.605896 -65.664407 25.917032 -72.168455 -9.456627 14.613782 46.750125 -7.011053 4.805197 19.009796 -1.221108 -11.897369 -0.000000 -0.000000 0.000006 0.000000 0.000000 0.000000 35.605896 -65.664407 25.917032 -40.076330 -6.223528 -17.400815 54.759986 -8.181828 4.043084 -15.192086 -20.742342 20.837512 -1.117556 -0.000012 -0.000003 0.000000 0.000000 0.000000 35.605896 -65.664407 25.917032 0.806054 6.572326 -0.586237 -1.588674 4.492977 -2.192216 0.000000 0.000000 0.000000 0.000000 0.000000 0.000000 -1.597447 -0.195596 1.993552 12.118096 6.829904 -4.433335 -0.737350 20.027399 8.229675 0.000000 0.000000 0.000000 -1.597447 -0.195596 1.993552 3.544250 4.756011 -11.623016 0.000000 0.000000 0.000000 -54.038831 -33.116432 -50.381555 0.000479 -81.882357 0.000417 0.000000 0.000000 0.000000 -1.597447 -0.195596 1.993552 -14.733696 2.115974 -4.463090 0.000000 0.000000 0.000000 -107.662414 41.165970 127.346473 -0.000004 29.080709 0.000014 0.000000 0.000000 0.000000 
3.556393 95.668381 -129.784805 0.000000 0.000000 0.000000 35.605896 -65.664407 25.917032 -72.168455 -9.456627 14.613782 46.750125 -7.011053 4.805197 19.009796 -1.221108 -11.897369 -0.000000 -0.000000 0.000006 0.000000 0.000000 0.000000 35.605896 -65.664407 25.917032 -40.076330 -6.223528 -17.400815 54.759986 -8.181828 4.043084 -15.192086 -20.742342 20.837512 -1.117556 -0.000012 -0.000003 0.000000 0.000000 0.000000 35.605896 -65.664407 25.917032 0.806054 6.572326 -0.586237 -1.588674 4.492977 -2.192216 0.000000 0.000000 0.000000 0.000000 0.000000 0.000000 -1.597447 -0.195596 1.993552 12.118096 6.829904 -4.433335 -0.737350 20.027399 8.229675 0.000000 0.000000 0.000000 -1.597447 -0.195596 1.993552 3.544250 4.756011 -11.623016 0.000000 0.000000 0.000000 -54.038831 -33.116432 -50.381555 0.000479 -81.882357 0.000417 0.000000 0.000000 0.000000 -1.597447 -0.195596 1.993552 -14.733696 2.115974 -4.463090 0.000000 0.000000 0.000000 -107.662414 41.165970 127.346473 -0.000004 29.080709 0.000014 0.000000 0.000000 0.000000 
3.556393 95.668381 -129.784805 0.000000 0.000000 0.000000 35.605896 -65.664407 25.917032 -72.168455 -9.456627 14.613782 46.750125 -7.011053 4.805197 19.009796 -1.221108 -11.897369 -0.000000 -0.000000 0.000006 0.000000 0.000000 0.000000 35.605896 -65.664407 25.917032 -40.076330 -6.223528 -17.400815 54.759986 -8.181828 4.043084 -15.192086 -20.742342 20.837512 -1.117556 -0.000012 -0.000003 0.000000 0.000000 0.000000 35.605896 -65.664407 25.917032 0.806054 6.572326 -0.586237 -1.588674 4.492977 -2.192216 0.000000 0.000000 0.000000 0.000000 0.000000 0.000000 -1.597447 -0.195596 1.993552 12.118096 6.829904 -4.433335 -0.737350 20.027399 8.229675 0.000000 0.000000 0.000000 -1.597447 -0.195596 1.993552 3.544250 4.756011 -11.623016 0.000000 0.000000 0.000000 -54.038831 -33.116432 -50.381555 0.000479 -81.882357 0.000417 0.000000 0.000000 0.000000 -1.597447 -0.195596 1.993552 -14.733696 2.115974 -4.463090 0.000000 0.000000 0.000000 -107.662414 41.165970 127.346473 -0.000004 29.080709 0.000014 0.000000 0.000000 0.000000 
3.556393 95.668381 -129.784805 0.000000 0.000000 0.000000 35.605896 -65.664407 25.917032 -72.168455 -9.456627 14.613782 46.750125 -7.011053 4.805197 19.009796 -1.221108 -11.897369 -0.000000 -0.000000 0.000006 0.000000 0.000000 0.000000 35.605896 -65.664407 25.917032 -40.076330 -6.223528 -17.400815 54.759986 -8.181828 4.043084 -15.192086 -20.742342 20.837512 -1.117556 -0.000012 -0.000003 0.000000 0.000000 0.000000 35.605896 -65.664407 25.917032 0.806054 6.572326 -0.586237 -1.588674 4.492977 -2.192216 0.000000 0.000000 0.000000 0.000000 0.000000 0.000000 -1.597447 -0.195596 1.993552 12.118096 6.829904 -4.433335 -0.737350 20.027399 8.229675 0.000000 0.000000 0.000000 -1.597447 -0.195596 1.993552 3.544250 4.756011 -11.623016 0.000000 0.000000 0.000000 -54.038831 -33.116432 -50.381555 0.000479 -81.882357 0.000417 0.000000 0.000000 0.000000 -1.597447 -0.195596 1.993552 -14.733696 2.115974 -4.463090 0.000000 0.000000 0.000000 -107.662414 41.165970 127.346473 -0.000004 29.080709 0.000014 0.000000 0.000000 0.000000 
3.556393 95.668381 -129.784805 0.000000 0.000000 0.000000 35.605896 -65.664407 25.917032 -72.168455 -9.456627 14.613782 46.750125 -7.011053 4.805197 19.009796 -1.221108 -11.897369 -0.000000 -0.000000 0.000006 0.000000 0.000000 0.000000 35.605896 -65.664407 25.917032 -40.076330 -6.223528 -17.400815 54.759986 -8.181828 4.043084 -15.192086 -20.742342 20.837512 -1.117556 -0.000012 -0.000003 0.000000 0.000000 0.000000 35.605896 -65.664407 25.917032 0.806054 6.572326 -0.586237 -1.588674 4.492977 -2.192216 0.000000 0.000000 0.000000 0.000000 0.000000 0.000000 -1.597447 -0.195596 1.993552 12.118096 6.829904 -4.433335 -0.737350 20.027399 8.229675 0.000000 0.000000 0.000000 -1.597447 -0.195596 1.993552 3.544250 4.756011 -11.623016 0.000000 0.000000 0.000000 -54.038831 -33.116432 -50.381555 0.000479 -81.882357 0.000417 0.000000 0.000000 0.000000 -1.597447 -0.195596 1.993552 -14.733696 2.115974 -4.463090 0.000000 0.000000 0.000000 -107.662414 41.165970 127.346473 -0.000004 29.080709 0.000014 0.000000 0.000000 0.000000 
3.556393 95.668381 -129.784805 0.000000 0.000000 0.000000 35.605896 -65.664407 25.917032 -72.168455 -9.456627 14.613782 46.750125 -7.011053 4.805197 19.009796 -1.221108 -11.897369 -0.000000 -0.000000 0.000006 0.000000 0.000000 0.000000 35.605896 -65.664407 25.917032 -40.076330 -6.223528 -17.400815 54.759986 -8.181828 4.043084 -15.192086 -20.742342 20.837512 -1.117556 -0.000012 -0.000003 0.000000 0.000000 0.000000 35.605896 -65.664407 25.917032 0.806054 6.572326 -0.586237 -1.588674 4.492977 -2.192216 0.000000 0.000000 0.000000 0.000000 0.000000 0.000000 -1.597447 -0.195596 1.993552 12.118096 6.829904 -4.433335 -0.737350 20.027399 8.229675 0.000000 0.000000 0.000000 -1.597447 -0.195596 1.993552 3.544250 4.756011 -11.623016 0.000000 0.000000 0.000000 -54.038831 -33.116432 -50.381555 0.000479 -81.882357 0.000417 0.000000 0.000000 0.000000 -1.597447 -0.195596 1.993552 -14.733696 2.115974 -4.463090 0.000000 0.000000 0.000000 -107.662414 41.165970 127.346473 -0.000004 29.080709 0.000014 0.000000 0.000000 0.000000 
3.556393 95.668381 -129.784805 0.000000 0.000000 0.000000 35.605896 -65.664407 25.917032 -72.168455 -9.456627 14.613782 46.750125 -7.011053 4.805197 19.009796 -1.221108 -11.897369 -0.000000 -0.000000 0.000006 0.000000 0.000000 0.000000 35.605896 -65.664407 25.917032 -40.076330 -6.223528 -17.400815 54.759986 -8.181828 4.043084 -15.192086 -20.742342 20.837512 -1.117556 -0.000012 -0.000003 0.000000 0.000000 0.000000 35.605896 -65.664407 25.917032 0.806054 6.572326 -0.586237 -1.588674 4.492977 -2.192216 0.000000 0.000000 0.000000 0.000000 0.000000 0.000000 -1.597447 -0.195596 1.993552 12.118096 6.829904 -4.433335 -0.737350 20.027399 8.229675 0.000000 0.000000 0.000000 -1.597447 -0.195596 1.993552 3.544250 4.756011 -11.623016 0.000000 0.000000 0.000000 -54.038831 -33.116432 -50.381555 0.000479 -81.882357 0.000417 0.000000 0.000000 0.000000 -1.597447 -0.195596 1.993552 -14.733696 2.115974 -4.463090 0.000000 0.000000 0.000000 -107.662414 41.165970 127.346473 -0.000004 29.080709 0.000014 0.000000 0.000000 0.000000 
